<svg id="Layer_5" enable-background="new 0 0 64 64" height="512" viewBox="0 0 64 64" width="512" xmlns="http://www.w3.org/2000/svg"><g><g><g><path d="m40 62h-30c0-2.21 1.79-4 4-4h2 18 2c1.1 0 2.1.45 2.83 1.17.72.73 1.17 1.73 1.17 2.83z" fill="#969faa"/></g><g><path d="m32 52 2 6h-18l2-6z" fill="#aab2bd"/></g><g><path d="m44 52h-38c-2.209 0-4-1.791-4-4v-26c0-2.209 1.791-4 4-4h38c2.209 0 4 1.791 4 4v26c0 2.209-1.791 4-4 4z" fill="#ccd1d9"/></g><g><path d="m62 50v4c0 4.42-3.58 8-8 8-2.21 0-4.21-.9-5.66-2.34-1.44-1.45-2.34-3.45-2.34-5.66v-2-2z" fill="#ffc729"/></g><g><path d="m56 40h-4c-1.54 0-2.94.58-4 1.54-1.23 1.09-2 2.69-2 4.46v4h16v-4c0-3.31-2.69-6-6-6z" fill="#fcd770"/></g><g><path d="m56 40v4c0 1.1-.9 2-2 2-.55 0-1.05-.22-1.41-.59-.37-.36-.59-.86-.59-1.41v-4h2z" fill="#b4dd7f"/></g><g><path d="m44 23v20c0 .55-.45 1-1 1h-3v-22h3c.55 0 1 .45 1 1z" fill="#69d6f4"/></g><g><path d="m40 22v22h-30v-22-4-8h30v8z" fill="#ffeaa7"/></g><g><path d="m40 4v6h-30v-6c0-1.1.9-2 2-2h26c1.1 0 2 .9 2 2z" fill="#b4dd7f"/></g><g><path d="m28 36h8v4h-8z" fill="#e6e9ed"/></g><g><path d="m36 22v10h-14v-8-2h6z" fill="#ff826e"/></g><g><path d="m28 14v8h-6v2h-8v-10z" fill="#e6e9ed"/></g><g><path d="m10 22v22h-3c-.55 0-1-.45-1-1v-20c0-.55.45-1 1-1z" fill="#69d6f4"/></g></g><g><path d="m9 47h8v2h-8z"/><path d="m5 47h2v2h-2z"/><path d="m17 5h2v2h-2z"/><path d="m13 5h2v2h-2z"/><path d="m21 5h2v2h-2z"/><path d="m27 41h10v-6h-10zm2-4h6v2h-6z"/><path d="m13 35h2v2h-2z"/><path d="m17 35h8v2h-8z"/><path d="m13 39h12v2h-12z"/><path d="m29 21v-8h-16v12h8v8h16v-12zm-14 2v-8h12v6h-6v2zm20 8h-12v-8h12z"/><path d="m56 39h-1v-3c0-.551.448-1 1-1h4c1.654 0 3-1.346 3-3s-1.346-3-3-3h-11v-7c0-2.757-2.243-5-5-5h-3v-13c0-1.654-1.346-3-3-3h-26c-1.654 0-3 1.346-3 3v13h-3c-2.757 0-5 2.243-5 5v26c0 2.757 2.243 5 5 5h10.613l-1.333 4h-1.28c-2.757 0-5 2.243-5 5v1h32v-1c0-2.757-2.243-5-5-5h-1.28l-1.333-4h11.613v1c0 4.962 4.037 9 9 9s9-4.038 9-9v-8c0-3.86-3.141-7-7-7zm-3 2h2v3c0 .551-.448 1-1 1s-1-.449-1-1zm7-10c.552 0 1 .449 1 1s-.448 1-1 1h-4c-1.654 0-3 1.346-3 3v3h-1c-1.074 0-2.089.251-3 .685v-8.685zm-51 12h-2v-20h2zm2 0v-32h28v32zm30-20h2v20h-2zm-29-20h26c.552 0 1 .449 1 1v5h-28v-5c0-.551.448-1 1-1zm26.829 58h-27.658c.413-1.164 1.525-2 2.829-2h22c1.304 0 2.416.836 2.829 2zm-6.216-4h-15.226l1.333-4h12.56zm-26.613-6c-1.654 0-3-1.346-3-3v-26c0-1.654 1.346-3 3-3h3v2h-2c-1.103 0-2 .897-2 2v20c0 1.103.897 2 2 2h36c1.103 0 2-.897 2-2v-20c0-1.103-.897-2-2-2h-2v-2h3c1.654 0 3 1.346 3 3v19.111c-1.235 1.263-2 2.988-2 4.889v5zm48 10c-3.859 0-7-3.14-7-7v-3h14v3c0 3.86-3.141 7-7 7zm7-12h-14v-3c0-2.414 1.721-4.434 4-4.899v2.899c0 1.654 1.346 3 3 3s3-1.346 3-3v-2.899c2.279.465 4 2.484 4 4.899z"/></g></g></svg>