<?xml version="1.0" encoding="UTF-8" standalone="no"?>
<svg
   xmlns:dc="http://purl.org/dc/elements/1.1/"
   xmlns:cc="http://creativecommons.org/ns#"
   xmlns:rdf="http://www.w3.org/1999/02/22-rdf-syntax-ns#"
   xmlns:svg="http://www.w3.org/2000/svg"
   xmlns="http://www.w3.org/2000/svg"
   version="1.1"
   id="svg2"
   xml:space="preserve"
   width="682.66669"
   height="665.78668"
   viewBox="0 0 682.66669 665.78668"><metadata
     id="metadata8"><rdf:RDF><cc:Work
         rdf:about=""><dc:format>image/svg+xml</dc:format><dc:type
           rdf:resource="http://purl.org/dc/dcmitype/StillImage" /><dc:title></dc:title></cc:Work></rdf:RDF></metadata><defs
     id="defs6" /><g
     id="g10"
     transform="matrix(1.3333333,0,0,-1.3333333,0,665.78667)"><g
       id="g12"
       transform="scale(0.1)"><path
         d="M 2560,4993.39 C 1146,4993.39 0,3846.39 0,2433.39 0,1301.39 732.996,342.391 1750,4.39063 1879,-19.6094 1925,59.3906 1925,128.391 c 0,61 -1,222 -2,435 -713,-155 -863,343 -863,343 -117.004,294.999 -285,373.999 -285,373.999 -232.004,158 17.996,155 17.996,155 257.004,-17 392.004,-263 392.004,-263 228,-391.999 599,-277.999 746,-212.999 22,164.999 89,277.999 162,341.999 -569,64 -1165.996,284 -1165.996,1265 0,280 98.996,508 262.996,688 -28,64 -115,325 23,678 0,0 214,68 704,-263 205,57 423,85 640,87 218,-1 435,-30 640,-87 487,331 701,263 701,263 137,-353 51,-613 26,-678 162,-179 262,-408 262,-688 0,-983 -598,-1200 -1167,-1263 89,-77 172,-234 172,-472.999 0,-342 -3,-618 -3,-702 0,-67.0004 45,-147.0004 177,-121.00037 C 4387,343.391 5120,1303.39 5120,2433.39 c 0,1413 -1146,2560 -2560,2560 v 0"
         style="fill:#100f0d;fill-opacity:1;fill-rule:nonzero;stroke:none"
         id="path14" /></g></g></svg>
