<?xml version="1.0" encoding="iso-8859-1"?>
<!-- Generator: Adobe Illustrator 19.0.0, SVG Export Plug-In . SVG Version: 6.00 Build 0)  -->
<svg version="1.1" id="Capa_1" xmlns="http://www.w3.org/2000/svg" xmlns:xlink="http://www.w3.org/1999/xlink" x="0px" y="0px"
	 viewBox="0 0 512 512" style="enable-background:new 0 0 512 512;" xml:space="preserve">
<path style="fill:#00A570;" d="M294.618,219.228c26.415-27.968,48.264-61.83,65.577-101.228h0.879
	c22.328,50.812,53.237,93.514,90.12,124.505l0.942,0.791h-42.064c19.638,79.655,62.495,125.141,62.495,125.141h-37.899
	C455.178,431.988,502,502,502,502H369L294.618,219.228z"/>
<polygon style="fill:#EF3C3C;" points="94.635,219.885 311.51,219.885 396.145,332.731 179.269,332.731 "/>
<rect x="179.27" y="332.73" style="fill:#898998;" width="216.88" height="169.27"/>
<polygon style="fill:#FE8F8D;" points="94.635,219.885 10,332.731 179.269,332.731 "/>
<rect x="10" y="332.73" style="fill:#FFFFFF;" width="169.27" height="169.27"/>
<g>
	<path style="fill:#FEA02C;" d="M94.635,402.923L94.635,402.923c-19.882,0-36,16.118-36,36V502h72v-63.077
		C130.635,419.041,114.517,402.923,94.635,402.923z"/>
	<rect x="220.92" y="402.92" style="fill:#FEA02C;" width="35.08" height="35.08"/>
	<rect x="313.92" y="402.92" style="fill:#FEA02C;" width="35.08" height="35.08"/>
</g>
<path d="M144.01,229.89c2.63,0,5.2-1.07,7.07-2.93c1.86-1.87,2.93-4.44,2.93-7.07c0-2.64-1.07-5.21-2.93-7.08
	c-1.87-1.859-4.44-2.92-7.07-2.92c-2.64,0-5.22,1.061-7.08,2.92c-1.86,1.87-2.93,4.44-2.93,7.08c0,2.63,1.07,5.2,2.93,7.07
	C138.79,228.819,141.37,229.89,144.01,229.89z"/>
<path d="M510.313,496.441c-0.428-0.641-40.065-60.255-61.576-118.004h23.829c3.985,0,7.585-2.372,9.17-6.028
	c1.585-3.657,0.842-7.91-1.882-10.819c-0.389-0.414-36.924-39.986-56.749-108.293h29.03c4.202,0,7.956-2.627,9.395-6.575
	c1.439-3.947,0.257-8.374-2.959-11.079l-0.944-0.794c-35.557-29.876-65.779-71.673-87.398-120.872
	c-1.596-3.632-5.188-5.977-9.155-5.977h-0.878c-3.967,0-7.559,2.345-9.155,5.977c-16.365,37.242-37.023,69.479-61.41,95.909H181.667
	c-5.523,0-10,4.478-10,10s4.477,10,10,10H306.51l69.635,92.846H184.269l-14.986-19.981h51.64c5.523,0,10-4.478,10-10
	s-4.477-10-10-10h-66.64l-51.648-68.864c-1.889-2.518-4.853-4-8-4s-6.111,1.482-8,4L2,326.731c-0.032,0.043-0.055,0.091-0.087,0.134
	c-0.236,0.324-0.457,0.659-0.653,1.011c-0.008,0.015-0.019,0.029-0.027,0.045c-0.203,0.369-0.377,0.756-0.533,1.152
	c-0.032,0.082-0.06,0.164-0.09,0.247c-0.12,0.329-0.222,0.666-0.307,1.01c-0.019,0.076-0.041,0.15-0.058,0.226
	c-0.089,0.402-0.157,0.813-0.197,1.231c-0.007,0.071-0.006,0.143-0.011,0.214C0.02,332.244,0,332.485,0,332.731V502
	c0,5.522,4.477,10,10,10h492c3.69,0,7.08-2.032,8.819-5.287C512.559,503.458,512.364,499.51,510.313,496.441z M94.634,236.553
	l64.634,86.179H30L94.634,236.553z M20,342.731h149.269V492h-28.634v-53.077c0-25.364-20.636-46-46-46s-46,20.636-46,46V492H20
	V342.731z M68.634,492v-53.077c0-14.337,11.664-26,26-26s26,11.663,26,26V492H68.634z M369,492H189.269V342.731h196.876V492H369z
	 M406.145,492V332.731c0-0.075-0.01-0.148-0.011-0.223c-0.004-0.19-0.014-0.379-0.029-0.569c-0.011-0.144-0.025-0.287-0.042-0.43
	c-0.022-0.18-0.05-0.359-0.082-0.537c-0.027-0.15-0.055-0.298-0.088-0.446c-0.037-0.166-0.081-0.33-0.127-0.495
	c-0.043-0.155-0.088-0.309-0.139-0.461s-0.107-0.303-0.166-0.453c-0.062-0.159-0.125-0.316-0.195-0.471
	c-0.062-0.138-0.129-0.275-0.198-0.411c-0.082-0.162-0.166-0.321-0.256-0.477c-0.072-0.125-0.147-0.248-0.225-0.371
	c-0.102-0.16-0.207-0.317-0.317-0.471c-0.044-0.061-0.08-0.125-0.125-0.186L319.51,213.886c-1.06-1.413-2.465-2.485-4.045-3.167
	c17.091-20.635,32.219-44.093,45.18-70.104c17.845,35.665,40.18,67.141,65.74,92.682h-16.314c-3.074,0-5.977,1.413-7.872,3.833
	s-2.573,5.576-1.837,8.561c13.26,53.781,36.601,92.287,51.405,112.747h-17.1c-3.198,0-6.202,1.529-8.084,4.114
	c-1.882,2.585-2.414,5.914-1.432,8.957c15.082,46.729,43.534,96.039,58.622,120.491H406.145z"/>
<path d="M256,392.923h-35.077c-5.523,0-10,4.478-10,10V438c0,5.522,4.477,10,10,10H256c5.523,0,10-4.478,10-10v-35.077
	C266,397.4,261.523,392.923,256,392.923z M246,428h-15.077v-15.077H246V428z"/>
<path d="M349,392.923h-35.077c-5.523,0-10,4.478-10,10V438c0,5.522,4.477,10,10,10H349c5.523,0,10-4.478,10-10v-35.077
	C359,397.4,354.523,392.923,349,392.923z M339,428h-15.077v-15.077H339V428z"/>
<path d="M162.798,127.368h0.313c5.523,0,10-4.478,10-10s-4.477-10-10-10h-0.313c-5.523,0-10,4.478-10,10
	S157.275,127.368,162.798,127.368z"/>
<path d="M50.491,60.648h0.313c5.523,0,10-4.478,10-10s-4.477-10-10-10h-0.313c-5.523,0-10,4.478-10,10S44.968,60.648,50.491,60.648z
	"/>
<path d="M255.687,20H256c5.523,0,10-4.478,10-10s-4.477-10-10-10h-0.313c-5.523,0-10,4.478-10,10S250.164,20,255.687,20z"/>
<path d="M53.687,153.653c0,5.522,4.477,10,10,10H64c5.523,0,10-4.478,10-10s-4.477-10-10-10h-0.313
	C58.164,143.653,53.687,148.131,53.687,153.653z"/>
<path d="M255.687,163.64H256c5.523,0,10-4.478,10-10s-4.477-10-10-10h-0.313c-5.523,0-10,4.478-10,10S250.164,163.64,255.687,163.64
	z"/>
<path d="M381.366,54.333h0.313c5.523,0,10-4.478,10-10s-4.477-10-10-10h-0.313c-5.523,0-10,4.478-10,10
	S375.843,54.333,381.366,54.333z"/>
<path d="M447.687,124.32H448c5.523,0,10-4.478,10-10s-4.477-10-10-10h-0.313c-5.523,0-10,4.478-10,10S442.164,124.32,447.687,124.32
	z"/>
<path d="M485.354,191.667h0.313c5.523,0,10-4.478,10-10s-4.477-10-10-10h-0.313c-5.523,0-10,4.478-10,10
	S479.831,191.667,485.354,191.667z"/>
<path d="M259.868,302.75c5.523,0,10-4.478,10-10s-4.477-10-10-10h-0.13c-5.523,0-10,4.478-10,10s4.477,10,10,10H259.868z"/>
<g>
</g>
<g>
</g>
<g>
</g>
<g>
</g>
<g>
</g>
<g>
</g>
<g>
</g>
<g>
</g>
<g>
</g>
<g>
</g>
<g>
</g>
<g>
</g>
<g>
</g>
<g>
</g>
<g>
</g>
</svg>
