<?xml version="1.0" encoding="iso-8859-1"?>
<!-- Generator: Adobe Illustrator 19.0.0, SVG Export Plug-In . SVG Version: 6.00 Build 0)  -->
<svg version="1.1" id="Layer_1" xmlns="http://www.w3.org/2000/svg" xmlns:xlink="http://www.w3.org/1999/xlink" x="0px" y="0px"
	 viewBox="0 0 512 512" style="enable-background:new 0 0 512 512;" xml:space="preserve">
<g>
	<rect x="140.163" y="99.673" style="fill:#FFD15B;" width="52.961" height="17.941"/>
	<rect x="317.336" y="99.673" style="fill:#FFD15B;" width="52.961" height="17.941"/>
</g>
<path style="fill:#A04E0A;" d="M480.653,460.665H31.347c-11.542,0-20.898-9.356-20.898-20.898V126.298h491.102v313.469
	C501.551,451.309,492.195,460.665,480.653,460.665z"/>
<polygon style="fill:#DB7F23;" points="216.294,262.404 55.38,249.086 10.449,126.567 501.551,126.567 456.62,249.086 
	295.706,262.286 "/>
<path d="M324.849,179.994h-0.139c-5.771,0-10.449-4.679-10.449-10.449s4.678-10.449,10.449-10.449h0.139
	c5.771,0,10.449,4.679,10.449,10.449S330.62,179.994,324.849,179.994z"/>
<path d="M442.514,179.994h-83.459c-5.771,0-10.449-4.679-10.449-10.449s4.678-10.449,10.449-10.449h83.459
	c5.771,0,10.449,4.679,10.449,10.449S448.285,179.994,442.514,179.994z"/>
<path d="M219.724,428.562H76.145c-17.285,0-31.347-14.062-31.347-31.347c0-5.77,4.678-10.449,10.449-10.449
	s10.449,4.679,10.449,10.449c0,5.762,4.687,10.449,10.449,10.449h143.579c5.771,0,10.449,4.679,10.449,10.449
	S225.495,428.562,219.724,428.562z"/>
<path d="M256.161,428.562H256c-5.771,0-10.449-4.679-10.449-10.449s4.678-10.449,10.449-10.449h0.161
	c5.771,0,10.449,4.679,10.449,10.449S261.932,428.562,256.161,428.562z"/>
<path style="fill:#FFD15B;" d="M285.257,227.9h-58.514c-1.731,0-3.135,1.403-3.135,3.135v41.848
	c0,17.89,14.502,32.392,32.392,32.392l0,0c17.89,0,32.392-14.502,32.392-32.392v-41.848
	C288.392,229.303,286.989,227.9,285.257,227.9z"/>
<path d="M501.551,115.849H383.52V97.31c0-5.77-4.678-10.449-10.449-10.449h-18.808V51.335c0-5.77-4.678-10.449-10.449-10.449
	H168.186c-5.771,0-10.449,4.679-10.449,10.449v35.527h-20.354c-5.771,0-10.449,4.679-10.449,10.449v18.539H10.449
	C4.678,115.849,0,120.528,0,126.298v313.469c0,17.285,14.062,31.347,31.347,31.347h449.306c17.285,0,31.347-14.062,31.347-31.347
	V126.298C512,120.528,507.322,115.849,501.551,115.849z M362.622,107.759v8.09h-37.616v-8.09H362.622z M178.635,61.784h154.729
	v25.078h-18.808c-5.771,0-10.449,4.679-10.449,10.449v18.539h-97.761V97.31c0-5.77-4.678-10.449-10.449-10.449h-17.263
	L178.635,61.784L178.635,61.784z M147.833,107.759h37.616v8.09h-37.616V107.759z M486.5,136.747l-37.35,100.109l-150.31,12.331
	v-18.151c0-7.49-6.094-13.584-13.584-13.584h-58.514c-7.49,0-13.584,6.094-13.584,13.584v18.266L62.851,236.861L25.5,136.747H486.5z
	 M234.057,251.955V238.35h43.886v13.606H234.057z M277.943,272.853v0.029c0,12.099-9.843,21.943-21.943,21.943
	s-21.943-9.844-21.943-21.943v-0.029H277.943z M491.102,439.767c0,5.762-4.687,10.449-10.449,10.449H31.347
	c-5.762,0-10.449-4.687-10.449-10.449V184.197l24.692,66.182c1.415,3.793,4.893,6.427,8.928,6.762l158.642,13.13v2.612
	c0,23.622,19.219,42.841,42.841,42.841s42.841-19.219,42.841-42.841v-2.728l158.634-13.014c4.038-0.331,7.519-2.966,8.935-6.763
	l24.692-66.181V439.767z"/>
<g>
</g>
<g>
</g>
<g>
</g>
<g>
</g>
<g>
</g>
<g>
</g>
<g>
</g>
<g>
</g>
<g>
</g>
<g>
</g>
<g>
</g>
<g>
</g>
<g>
</g>
<g>
</g>
<g>
</g>
</svg>
